<?xml version="1.0" encoding="UTF-8"?>
<svg xmlns="http://www.w3.org/2000/svg" viewBox="359 360 376 376" width="376" height="376">
<path d="M431.61 383.24C438.62 382.14 446.4 383.03 453.5 383.03C467.83 383.03 482.17 383.03 496.5 383.03C541.17 383.03 585.83 383.03 630.5 383.03C659.22 383.03 686.37 379.94 703.89 407.64C714.07 423.75 712 443.3 712 461.5C712 494.5 712 527.5 712 560.5C712 587.17 712 613.83 712 640.5C712 662.27 712.44 683.39 694.27 698.77C673.84 716.05 646.48 712 621.5 712C569.5 712 517.5 712 465.5 712C441.22 712 413.65 714.97 396.24 694.27C381.52 676.78 383.03 658.03 383.03 636.5C383.03 609.17 383.03 581.83 383.03 554.5C383.03 525.5 383.03 496.5 383.03 467.5C383.03 443.26 379.8 416.75 398.75 398.26C402.82 394.3 407.55 390.6 412.79 388.32C418.9 385.65 425.08 384.26 431.61 383.24ZM619.5 582.29C630.8 571.95 641.23 560.4 651.93 549.43C663.15 537.95 674.44 527.13 680.37 511.83C698.39 465.34 667.33 415.89 618.49 410.16C576.25 405.2 554.18 435.99 527.97 462.46C513.47 477.11 498.47 490.98 493.41 511.81C487.83 534.75 492.55 558.86 506.88 577.67C511.49 583.74 518.17 591.21 525.5 593.76C532.32 590.43 546.08 573.76 548.05 566.5C545.96 562.77 541.1 560.66 538.03 557.46C531.14 550.27 527.6 540.43 528.11 530.5C528.67 519.39 535.29 510.92 542.63 503.14C553.79 491.33 565.29 479.76 576.76 468.26C587.76 457.23 597.46 446.23 614.5 447.07C640.57 448.34 656.37 478.49 643.38 500.84C638.38 509.44 629.87 516.4 622.97 523.47C620.49 526.02 617.72 528.35 616.08 531.5C616.6 535 617.93 538.3 618.64 541.77C619.82 547.55 620.54 553.59 620.84 559.5C621.22 567.13 619.03 574.91 619.5 582.29ZM569.5 501.7C560.8 504.29 548.95 519.94 546.51 528.5C548.74 532.05 552.76 533.78 555.77 536.74C562.64 543.49 566.81 552.8 566.73 562.5C566.62 574.66 559.47 583.67 551.67 592.19C543.24 601.4 534.25 610.1 525.51 619.01C518.8 625.85 512.36 633.33 505.07 639.56C498.75 644.95 489.8 648.17 481.5 647.93C455.45 647.2 438.31 618.44 450.71 595.24C457.24 583.02 472.52 574.6 478.71 563.5C477.46 554.75 474.56 546.45 474.05 537.5C473.78 532.91 473.72 528.08 474.08 523.5C474.36 519.86 475.34 516.67 474.5 513.18C463.8 524.09 453.22 535.11 442.47 545.97C431.65 556.9 421.22 567.21 415.19 581.67C395.78 628.14 426.95 679.56 476.5 684.85C495.36 686.86 514.89 680.91 529.81 669.33C536.85 663.87 542.77 656.85 549.04 650.55C556.18 643.35 563.43 636.26 570.48 628.97C583.75 615.25 597.29 601.62 601.77 582.39C607.32 558.55 601.74 533.4 585.6 514.88C581.22 509.86 575.88 503.92 569.5 501.7Z" fill="#ff751f" fill-rule="evenodd" stroke="#ff751f" stroke-width="0.25" stroke-linejoin="round"/>
<path d="M619.5 582.29C619.03 574.91 621.22 567.13 620.84 559.5C620.54 553.59 619.82 547.55 618.64 541.77C617.93 538.3 616.6 535 616.08 531.5C617.72 528.35 620.49 526.02 622.97 523.47C629.87 516.4 638.38 509.44 643.38 500.84C656.37 478.49 640.57 448.34 614.5 447.07C597.46 446.23 587.76 457.23 576.76 468.26C565.29 479.76 553.79 491.33 542.63 503.14C535.29 510.92 528.67 519.39 528.11 530.5C527.6 540.43 531.14 550.27 538.03 557.46C541.1 560.66 545.96 562.77 548.05 566.5C546.08 573.76 532.32 590.43 525.5 593.76C518.17 591.21 511.49 583.74 506.88 577.67C492.55 558.86 487.83 534.75 493.41 511.81C498.47 490.98 513.47 477.11 527.97 462.46C554.18 435.99 576.25 405.2 618.49 410.16C667.33 415.89 698.39 465.34 680.37 511.83C674.44 527.13 663.15 537.95 651.93 549.43C641.23 560.4 630.8 571.95 619.5 582.29ZM569.5 501.7C575.88 503.92 581.22 509.86 585.6 514.88C601.74 533.4 607.32 558.55 601.77 582.39C597.29 601.62 583.75 615.25 570.48 628.97C563.43 636.26 556.18 643.35 549.04 650.55C542.77 656.85 536.85 663.87 529.81 669.33C514.89 680.91 495.36 686.86 476.5 684.85C426.95 679.56 395.78 628.14 415.19 581.67C421.22 567.21 431.65 556.9 442.47 545.97C453.22 535.11 463.8 524.09 474.5 513.18C475.34 516.67 474.36 519.86 474.08 523.5C473.72 528.08 473.78 532.91 474.05 537.5C474.56 546.45 477.46 554.75 478.71 563.5C472.52 574.6 457.24 583.02 450.71 595.24C438.31 618.44 455.45 647.2 481.5 647.93C489.8 648.17 498.75 644.95 505.07 639.56C512.36 633.33 518.8 625.85 525.51 619.01C534.25 610.1 543.24 601.4 551.67 592.19C559.47 583.67 566.62 574.66 566.73 562.5C566.81 552.8 562.64 543.49 555.77 536.74C552.76 533.78 548.74 532.05 546.51 528.5C548.95 519.94 560.8 504.29 569.5 501.7Z" fill="#000000" fill-rule="evenodd" stroke="#000000" stroke-width="0.25" stroke-linejoin="round"/>
</svg>